<svg viewBox="0 0 1000 700" xmlns="http://www.w3.org/2000/svg" fill-rule="evenodd" clip-rule="evenodd" stroke-linejoin="round" stroke-miterlimit="1.414"><path d="M86.297 412.13c10.447 0 20.283-4 27.67-11.346 7.428-7.305 11.468-17.059 11.468-27.425 0-3.388-2.734-6.122-6.08-6.122-3.43 0-6.163 2.734-6.163 6.122 0 14.651-12.04 26.568-26.895 26.568-14.815 0-26.895-11.917-26.895-26.568v-45.954c0-14.61 12.08-26.568 26.895-26.568 14.855 0 26.895 11.957 26.895 26.568a6.157 6.157 0 0 0 6.162 6.163c3.347 0 6.081-2.776 6.081-6.163 0-10.366-4.04-20.12-11.468-27.425-7.387-7.346-17.223-11.346-27.67-11.346-10.407 0-20.284 4-27.67 11.346-7.388 7.305-11.469 17.059-11.469 27.425v45.954c0 10.366 4.081 20.12 11.468 27.425 7.387 7.346 17.264 11.346 27.67 11.346zM175.756 412.212c9.55 0 18.528-3.51 25.303-9.877 6.897-6.448 10.693-15.06 10.693-24.242 0-8.938-3.878-16.937-11.264-23.14-5.796-4.857-13.632-8.611-23.181-11.142-8-2.081-14.203-4.897-18.529-8.407-4.57-3.714-6.815-8.08-6.815-13.345 0-12.08 10.651-21.875 23.793-21.875 11.835 0 21.956 8.121 23.548 18.936.49 3.347 3.591 5.673 6.938 5.183 3.347-.49 5.673-3.632 5.183-6.978-1.184-8.122-5.469-15.631-12.04-21.018-6.57-5.388-14.977-8.367-23.63-8.367-9.55 0-18.569 3.47-25.343 9.836-6.897 6.448-10.693 15.1-10.693 24.283 0 4.693 1.061 9.141 3.183 13.141 1.918 3.591 4.653 6.856 8.203 9.713 5.632 4.612 13.427 8.203 23.1 10.734 9.427 2.49 25.303 8.733 25.303 22.446 0 12.04-10.652 21.875-23.752 21.875-11.958 0-23.345-8.979-24.895-19.63-.49-3.347-3.592-5.673-6.938-5.183-3.347.49-5.673 3.591-5.183 6.938 1.183 8.162 5.713 15.794 12.774 21.466 6.938 5.592 15.508 8.653 24.242 8.653zM260.195 412.212c9.55 0 18.528-3.51 25.303-9.877 6.897-6.448 10.693-15.06 10.693-24.242 0-8.938-3.877-16.937-11.264-23.14-5.796-4.857-13.631-8.611-23.181-11.142-8-2.081-14.203-4.897-18.529-8.407-4.57-3.714-6.815-8.08-6.815-13.345 0-12.08 10.652-21.875 23.793-21.875 11.835 0 21.957 8.121 23.548 18.936.49 3.347 3.592 5.673 6.938 5.183 3.347-.49 5.673-3.632 5.183-6.978-1.183-8.122-5.469-15.631-12.04-21.018-6.57-5.388-14.977-8.367-23.63-8.367-9.549 0-18.568 3.47-25.343 9.836-6.897 6.448-10.693 15.1-10.693 24.283 0 4.693 1.061 9.141 3.184 13.141 1.918 3.591 4.652 6.856 8.203 9.713 5.632 4.612 13.427 8.203 23.099 10.734 9.428 2.49 25.303 8.733 25.303 22.446 0 12.04-10.652 21.875-23.752 21.875-11.958 0-23.344-8.979-24.895-19.63-.49-3.347-3.592-5.673-6.938-5.183-3.347.49-5.673 3.591-5.183 6.938 1.183 8.162 5.713 15.794 12.774 21.466 6.938 5.592 15.508 8.653 24.242 8.653zM368.754 369.85a6.114 6.114 0 0 0 6.121-6.123 6.114 6.114 0 0 0-6.121-6.121h-52.402a6.114 6.114 0 0 0-6.122 6.121 6.114 6.114 0 0 0 6.122 6.122h52.402zM434.46 412.13a6.106 6.106 0 0 0 5.796-4.122l38.363-111.457c1.101-3.183-.613-6.652-3.837-7.754-3.142-1.102-6.652.572-7.754 3.796l-32.568 94.642-32.567-94.642c-1.102-3.224-4.612-4.898-7.795-3.796-3.184 1.102-4.857 4.571-3.796 7.754l38.363 111.457a6.106 6.106 0 0 0 5.795 4.122zM693.83 412.212a6.088 6.088 0 0 0 6.121-6.122 6.088 6.088 0 0 0-6.121-6.122H647.1V294.756a6.114 6.114 0 0 0-6.121-6.122 6.114 6.114 0 0 0-6.122 6.122V406.09a6.114 6.114 0 0 0 6.122 6.122h52.85zM741.93 412.212c10.447 0 20.324-4.04 27.71-11.346 7.428-7.346 11.51-17.141 11.51-27.507v-79.624a6.114 6.114 0 0 0-6.122-6.121 6.114 6.114 0 0 0-6.122 6.121v79.624c0 14.692-12.121 26.609-26.976 26.609-14.856 0-26.977-11.917-26.977-26.61v-79.623a6.114 6.114 0 0 0-6.122-6.121 6.114 6.114 0 0 0-6.121 6.121v79.624c0 10.366 4.122 20.16 11.509 27.507 7.427 7.305 17.263 11.346 27.71 11.346zM861.67 399.968h-50.075v-44.24h39.098a6.114 6.114 0 0 0 6.121-6.121 6.114 6.114 0 0 0-6.121-6.122h-39.098v-43.097h50.076a6.114 6.114 0 0 0 6.122-6.122 6.114 6.114 0 0 0-6.122-6.122h-56.116c-3.387 0-6.203 2.775-6.203 6.163v111.742c0 3.387 2.816 6.163 6.203 6.163h56.116a6.114 6.114 0 0 0 6.122-6.122 6.114 6.114 0 0 0-6.122-6.122zM916.848 412.212c9.55 0 18.529-3.51 25.303-9.877 6.897-6.448 10.693-15.06 10.693-24.242 0-8.938-3.877-16.937-11.264-23.14-5.795-4.857-13.631-8.611-23.181-11.142-8-2.081-14.202-4.897-18.529-8.407-4.57-3.714-6.815-8.08-6.815-13.345 0-12.08 10.652-21.875 23.793-21.875 11.835 0 21.957 8.121 23.548 18.936.49 3.347 3.592 5.673 6.938 5.183 3.347-.49 5.673-3.632 5.183-6.978-1.183-8.122-5.468-15.631-12.039-21.018-6.57-5.388-14.978-8.367-23.63-8.367-9.55 0-18.57 3.47-25.344 9.836-6.897 6.448-10.693 15.1-10.693 24.283 0 4.693 1.062 9.141 3.184 13.141 1.918 3.591 4.652 6.856 8.203 9.713 5.632 4.612 13.427 8.203 23.1 10.734 9.427 2.49 25.302 8.733 25.302 22.446 0 12.04-10.651 21.875-23.752 21.875-11.958 0-23.344-8.979-24.895-19.63-.49-3.347-3.591-5.673-6.938-5.183-3.346.49-5.673 3.591-5.183 6.938 1.184 8.162 5.714 15.794 12.774 21.466 6.938 5.592 15.508 8.653 24.242 8.653z" fill="#7734b2" fill-rule="nonzero"/><path d="M543.683 291.389a6.102 6.102 0 0 1 2.642-3.098 6.11 6.11 0 0 1 8.367 2.213l3.303 5.673c.088.129.172.261.253.398l19.029 32.709c.112.158.22.324.32.497l.54.926 36.982.016a6.114 6.114 0 0 1 6.12 6.122 6.113 6.113 0 0 1-6.12 6.122l-29.838-.013 8.54 14.676a.86.86 0 0 1 .045.079l26.351 45.293c.039.067.078.135.113.203.58.934.91 2.036.91 3.217a6.113 6.113 0 0 1-6.121 6.122l-130.98-.059a6.094 6.094 0 0 1-4.19-1.654 6.112 6.112 0 0 1-1.324-7.743l26.351-45.294c.078-.137.162-.27.25-.398l3.303-5.675a6.06 6.06 0 0 1 .32-.497l4.831-8.303-29.542-.013a6.113 6.113 0 0 1-6.12-6.121 6.113 6.113 0 0 1 6.12-6.122l36.665.016 7.077-12.165c.015-.026.029-.052.046-.078l12.668-21.777c.08-.137.165-.27.253-.399l2.836-4.873zm-15.82 51.539l-12.2 20.967c-.078.137-.162.27-.25.398l-3.303 5.674a6.007 6.007 0 0 1-.32.498l-17.327 29.781 109.994.05-11.044-18.985c-.014-.026-.032-.053-.046-.08l-19.028-32.707a5.246 5.246 0 0 1-.323-.498l-2.956-5.079-43.197-.02zm7.123-12.24l28.93.012-14.47-24.87-14.46 24.857z" fill="#7734b2"/></svg>